<svg width="24" height="22" viewBox="0 0 24 22" fill="none" xmlns="http://www.w3.org/2000/svg">
<path d="M15.4375 5.46777C15.4375 4.26465 14.75 3.14746 13.7188 2.50293C12.6445 1.90137 11.3125 1.90137 10.2812 2.50293C9.20703 3.14746 8.5625 4.26465 8.5625 5.46777C8.5625 6.71387 9.20703 7.83105 10.2812 8.47559C11.3125 9.07715 12.6445 9.07715 13.7188 8.47559C14.75 7.83105 15.4375 6.71387 15.4375 5.46777ZM6.5 5.46777C6.5 3.53418 7.53125 1.72949 9.25 0.741211C10.9258 -0.24707 13.0312 -0.24707 14.75 0.741211C16.4258 1.72949 17.5 3.53418 17.5 5.46777C17.5 7.44434 16.4258 9.24902 14.75 10.2373C13.0312 11.2256 10.9258 11.2256 9.25 10.2373C7.53125 9.24902 6.5 7.44434 6.5 5.46777ZM4.48047 19.9053H19.4766C19.0898 17.1982 16.7695 15.0928 13.9336 15.0928H10.0234C7.1875 15.0928 4.86719 17.1982 4.48047 19.9053ZM2.375 20.7217C2.375 16.4678 5.76953 13.0303 10.0234 13.0303H13.9336C18.1875 13.0303 21.625 16.4678 21.625 20.7217C21.625 21.4092 21.0234 21.9678 20.3359 21.9678H3.62109C2.93359 21.9678 2.375 21.4092 2.375 20.7217Z" fill="#754EE4"/>
</svg>
