<svg width="26" height="22" viewBox="0 0 26 22" fill="none" xmlns="http://www.w3.org/2000/svg">
<path d="M13.6659 0.225586L25.0097 9.85059C25.4394 10.2373 25.4823 10.8818 25.1386 11.3115C24.7519 11.7412 24.1073 11.7842 23.6777 11.4404L22.6464 10.5381V18.5303C22.6464 20.4639 21.0995 21.9678 19.2089 21.9678H6.8339C4.90031 21.9678 3.3964 20.4639 3.3964 18.5303V10.5381L2.32218 11.4404C1.8925 11.7842 1.24797 11.7412 0.861247 11.3115C0.517497 10.8818 0.560465 10.2373 0.990153 9.85059L12.3339 0.225586C12.7206 -0.0751953 13.2792 -0.0751953 13.6659 0.225586ZM5.4589 18.5303C5.4589 19.3037 6.06047 19.9053 6.8339 19.9053H8.8964V13.374C8.8964 12.4287 9.62687 11.6553 10.6152 11.6553H15.4277C16.373 11.6553 17.1464 12.4287 17.1464 13.374V19.9053H19.2089C19.9394 19.9053 20.5839 19.3037 20.5839 18.5303V8.77637L13.0214 2.37402L5.4589 8.77637V18.5303ZM10.9589 19.9053H15.0839V13.7178H10.9589V19.9053Z" fill="#754EE4"/>
</svg>
