<svg width="119" height="104" viewBox="0 0 119 104" fill="none" xmlns="http://www.w3.org/2000/svg">
<g style="mix-blend-mode:multiply">
<path d="M57.2806 19.8726L57.7698 26.3961H58.2612C60.227 21.4741 64.0357 19.015 69.6852 19.015C75.3346 19.015 78.7747 21.3734 80.3719 26.3961H80.8634C82.9498 21.4741 87.1271 19.015 93.1451 19.015C101.5 19.015 105.429 23.8344 105.429 34.1874V70.2763H96.4624V34.0848C96.4624 28.8571 94.4966 26.3961 90.1987 26.3961C84.9156 26.3961 81.7234 30.2927 81.7234 36.5458V70.2763H73.6145V34.0848C73.6145 28.9578 71.5281 26.3961 67.3508 26.3961C62.0677 26.3961 58.8733 30.1901 58.8733 36.5458V70.2763H49.9066V19.8726H57.2806Z" fill="#EE3CAF"/>
<path d="M94.0096 72.3289V34.0867C94.0096 28.4469 91.6261 28.4469 90.2031 28.4469C84.6185 28.4469 84.1851 34.646 84.1851 36.5458V72.3271H71.164V34.0848C71.164 28.4451 68.5928 28.4451 67.3575 28.4451C61.9247 28.4451 61.3372 34.1091 61.3372 36.5439V72.3252H47.4561V17.8218H59.5926L59.7735 20.2287C62.2911 18.0772 65.6352 16.9642 69.6919 16.9642C74.7627 16.9642 78.4977 18.6365 80.8455 21.9439C83.6222 18.6701 87.8017 16.9642 93.1541 16.9642C98.1802 16.9642 101.985 18.5135 104.464 21.5692C106.774 24.4161 107.895 28.5439 107.895 34.1892V72.3289H94.0096ZM98.9241 68.2273H102.976V34.1892C102.976 22.6263 98.0082 21.0677 93.1496 21.0677C88.291 21.0677 85.2038 22.8575 83.4301 26.5359C85.2529 25.1134 87.5918 24.3471 90.2031 24.3471C93.9404 24.3471 95.9531 25.8629 96.9829 27.1325C98.2897 28.7452 98.9241 31.0198 98.9241 34.0867V68.2273ZM76.0762 68.2273H79.2684V36.5477C79.2684 33.313 80.0659 30.5276 81.5827 28.4488H78.4843L77.9996 26.9237C76.695 22.8183 74.2087 21.0677 69.6874 21.0677C65.4431 21.0677 62.6485 22.7027 60.9664 26.1985C62.6843 24.9959 64.8422 24.3471 67.3552 24.3471C70.6122 24.3471 76.0762 25.6131 76.0762 34.0885V68.2292V68.2273ZM56.4183 68.2273V36.5477C56.4183 33.2496 57.2225 30.4977 58.6946 28.4488H55.46L54.9707 21.9253H52.3638V68.2273H56.4183Z" fill="#EE3CAF"/>
</g>
<g style="mix-blend-mode:darken">
<path d="M17.8105 53.8267V26.7596H2.45724V19.6861H18.302L18.3869 2.05273H27.3916V19.6861H57.8636V26.7596H27.3916V52.8013C27.3916 59.9773 31.0774 63.5663 38.4492 63.5663C45.8209 63.5663 49.6274 59.9792 49.6274 52.8013V49.1098H58.9627V53.8248C58.9627 64.7949 51.5909 70.9474 38.3241 70.9474C25.0572 70.9474 17.8105 64.7949 17.8105 53.8248V53.8267Z" fill="#754EE4"/>
<path d="M38.3263 73C31.1087 73 25.4146 71.3015 21.4026 67.9512C17.3906 64.6009 15.3555 59.8486 15.3555 53.8267V28.8103H2.45724C1.09906 28.8103 0 27.8931 0 26.7595V19.686C0 18.5525 1.09906 17.6352 2.45724 17.6352H15.8559L15.9319 2.04337C15.9363 0.913549 17.0354 0 18.3891 0H27.3938C28.752 0 29.851 0.917278 29.851 2.05082V17.6334H57.8658C59.224 17.6334 60.3231 18.5506 60.3231 19.6842V26.7577C60.3231 27.8912 59.224 28.8085 57.8658 28.8085H29.851V52.7994C29.851 60.5217 34.4461 61.5135 38.4514 61.5135C42.765 61.5135 47.1724 60.4788 47.1724 52.7994V49.1079C47.1724 47.9744 48.2714 47.0571 49.6296 47.0571H58.9649C60.3231 47.0571 61.4221 47.9744 61.4221 49.1079V53.8229C61.4221 59.8524 59.3804 64.6065 55.355 67.9512C51.3273 71.2978 45.5975 72.9963 38.3263 72.9963V73ZM4.91449 24.7087H17.8105C19.1687 24.7087 20.2678 25.626 20.2678 26.7595V53.8267C20.2678 63.6855 26.5114 68.8984 38.3241 68.8984C50.1367 68.8984 56.5054 63.6874 56.5054 53.8267V51.1625H52.0846V52.8031C52.0846 56.8861 50.9476 60.0537 48.707 62.2183C46.3704 64.4742 42.9191 65.6189 38.4492 65.6189C33.9792 65.6189 30.6128 64.4723 28.2896 62.2127C26.0624 60.0444 24.9343 56.8805 24.9343 52.805V26.7632C24.9343 25.6297 26.0334 24.7124 27.3916 24.7124H55.4064V21.7406H27.3916C26.0334 21.7406 24.9343 20.8233 24.9343 19.6898V4.10351H20.8352L20.7592 19.6954C20.7548 20.8252 19.6557 21.7387 18.302 21.7387H4.91449V24.7106V24.7087Z" fill="#754EE4"/>
</g>
<g style="mix-blend-mode:darken">
<path d="M107.514 72.0496C111.932 72.0496 115.514 68.4678 115.514 64.0496C115.514 59.6313 111.932 56.0496 107.514 56.0496C103.096 56.0496 99.5142 59.6313 99.5142 64.0496C99.5142 68.4678 103.096 72.0496 107.514 72.0496Z" fill="#754EE4"/>
</g>
<path d="M11.8127 82.832V84.64H8.83675V94H6.59675V84.64H3.62075V82.832H11.8127ZM21.2071 89.376C21.2071 89.696 21.1858 89.984 21.1431 90.24H14.6631C14.7165 90.88 14.9405 91.3813 15.3351 91.744C15.7298 92.1067 16.2151 92.288 16.7911 92.288C17.6231 92.288 18.2151 91.9307 18.5671 91.216H20.9831C20.7271 92.0693 20.2365 92.7733 19.5111 93.328C18.7858 93.872 17.8951 94.144 16.8391 94.144C15.9858 94.144 15.2178 93.9573 14.5351 93.584C13.8631 93.2 13.3351 92.6613 12.9511 91.968C12.5778 91.2747 12.3911 90.4747 12.3911 89.568C12.3911 88.6507 12.5778 87.8453 12.9511 87.152C13.3245 86.4587 13.8471 85.9253 14.5191 85.552C15.1911 85.1787 15.9645 84.992 16.8391 84.992C17.6818 84.992 18.4338 85.1733 19.0951 85.536C19.7671 85.8987 20.2845 86.416 20.6471 87.088C21.0205 87.7493 21.2071 88.512 21.2071 89.376ZM18.8871 88.736C18.8765 88.16 18.6685 87.7013 18.2631 87.36C17.8578 87.008 17.3618 86.832 16.7751 86.832C16.2205 86.832 15.7511 87.0027 15.3671 87.344C14.9938 87.6747 14.7645 88.1387 14.6791 88.736H18.8871ZM30.6021 89.376C30.6021 89.696 30.5808 89.984 30.5381 90.24H24.0581C24.1115 90.88 24.3355 91.3813 24.7301 91.744C25.1248 92.1067 25.6101 92.288 26.1861 92.288C27.0181 92.288 27.6101 91.9307 27.9621 91.216H30.3781C30.1221 92.0693 29.6315 92.7733 28.9061 93.328C28.1808 93.872 27.2901 94.144 26.2341 94.144C25.3808 94.144 24.6128 93.9573 23.9301 93.584C23.2581 93.2 22.7301 92.6613 22.3461 91.968C21.9728 91.2747 21.7861 90.4747 21.7861 89.568C21.7861 88.6507 21.9728 87.8453 22.3461 87.152C22.7195 86.4587 23.2421 85.9253 23.9141 85.552C24.5861 85.1787 25.3595 84.992 26.2341 84.992C27.0768 84.992 27.8288 85.1733 28.4901 85.536C29.1621 85.8987 29.6795 86.416 30.0421 87.088C30.4155 87.7493 30.6021 88.512 30.6021 89.376ZM28.2821 88.736C28.2715 88.16 28.0635 87.7013 27.6581 87.36C27.2528 87.008 26.7568 86.832 26.1701 86.832C25.6155 86.832 25.1461 87.0027 24.7621 87.344C24.3888 87.6747 24.1595 88.1387 24.0741 88.736H28.2821ZM36.6691 85.008C37.7251 85.008 38.5785 85.344 39.2291 86.016C39.8798 86.6773 40.2051 87.6053 40.2051 88.8V94H37.9651V89.104C37.9651 88.4 37.7891 87.8613 37.4371 87.488C37.0851 87.104 36.6051 86.912 35.9971 86.912C35.3785 86.912 34.8878 87.104 34.5251 87.488C34.1731 87.8613 33.9971 88.4 33.9971 89.104V94H31.7571V85.136H33.9971V86.24C34.2958 85.856 34.6745 85.5573 35.1331 85.344C35.6025 85.12 36.1145 85.008 36.6691 85.008ZM41.2793 89.536C41.2793 88.64 41.4553 87.8453 41.8073 87.152C42.1699 86.4587 42.6553 85.9253 43.2633 85.552C43.8819 85.1787 44.5699 84.992 45.3273 84.992C45.9886 84.992 46.5646 85.1253 47.0553 85.392C47.5566 85.6587 47.9566 85.9947 48.2553 86.4V85.136H50.5113V94H48.2553V92.704C47.9673 93.12 47.5673 93.4667 47.0553 93.744C46.5539 94.0107 45.9726 94.144 45.3113 94.144C44.5646 94.144 43.8819 93.952 43.2633 93.568C42.6553 93.184 42.1699 92.6453 41.8073 91.952C41.4553 91.248 41.2793 90.4427 41.2793 89.536ZM48.2553 89.568C48.2553 89.024 48.1486 88.56 47.9353 88.176C47.7219 87.7813 47.4339 87.4827 47.0713 87.28C46.7086 87.0667 46.3193 86.96 45.9033 86.96C45.4873 86.96 45.1033 87.0613 44.7513 87.264C44.3993 87.4667 44.1113 87.7653 43.8873 88.16C43.6739 88.544 43.5673 89.0027 43.5673 89.536C43.5673 90.0693 43.6739 90.5387 43.8873 90.944C44.1113 91.3387 44.3993 91.6427 44.7513 91.856C45.1139 92.0693 45.4979 92.176 45.9033 92.176C46.3193 92.176 46.7086 92.0747 47.0713 91.872C47.4339 91.6587 47.7219 91.36 47.9353 90.976C48.1486 90.5813 48.2553 90.112 48.2553 89.568ZM67.7275 82.832V94H65.4875V86.736L62.4955 94H60.7995L57.7915 86.736V94H55.5515V82.832H58.0955L61.6475 91.136L65.1995 82.832H67.7275ZM73.3981 94.144C72.5448 94.144 71.7768 93.9573 71.0941 93.584C70.4115 93.2 69.8728 92.6613 69.4781 91.968C69.0941 91.2747 68.9021 90.4747 68.9021 89.568C68.9021 88.6613 69.0995 87.8613 69.4941 87.168C69.8995 86.4747 70.4488 85.9413 71.1421 85.568C71.8355 85.184 72.6088 84.992 73.4621 84.992C74.3155 84.992 75.0888 85.184 75.7821 85.568C76.4755 85.9413 77.0195 86.4747 77.4141 87.168C77.8195 87.8613 78.0221 88.6613 78.0221 89.568C78.0221 90.4747 77.8141 91.2747 77.3981 91.968C76.9928 92.6613 76.4381 93.2 75.7341 93.584C75.0408 93.9573 74.2621 94.144 73.3981 94.144ZM73.3981 92.192C73.8035 92.192 74.1821 92.096 74.5341 91.904C74.8968 91.7013 75.1848 91.4027 75.3981 91.008C75.6115 90.6133 75.7181 90.1333 75.7181 89.568C75.7181 88.7253 75.4941 88.08 75.0461 87.632C74.6088 87.1733 74.0701 86.944 73.4301 86.944C72.7901 86.944 72.2515 87.1733 71.8141 87.632C71.3875 88.08 71.1741 88.7253 71.1741 89.568C71.1741 90.4107 71.3821 91.0613 71.7981 91.52C72.2248 91.968 72.7581 92.192 73.3981 92.192ZM84.0973 85.008C85.1533 85.008 86.0066 85.344 86.6573 86.016C87.3079 86.6773 87.6333 87.6053 87.6333 88.8V94H85.3933V89.104C85.3933 88.4 85.2173 87.8613 84.8653 87.488C84.5133 87.104 84.0333 86.912 83.4253 86.912C82.8066 86.912 82.3159 87.104 81.9533 87.488C81.6013 87.8613 81.4253 88.4 81.4253 89.104V94H79.1853V85.136H81.4253V86.24C81.7239 85.856 82.1026 85.5573 82.5613 85.344C83.0306 85.12 83.5426 85.008 84.0973 85.008ZM88.7074 89.536C88.7074 88.64 88.8834 87.8453 89.2354 87.152C89.598 86.4587 90.0834 85.9253 90.6914 85.552C91.31 85.1787 91.998 84.992 92.7554 84.992C93.4167 84.992 93.9927 85.1253 94.4834 85.392C94.9847 85.6587 95.3847 85.9947 95.6834 86.4V85.136H97.9394V94H95.6834V92.704C95.3954 93.12 94.9954 93.4667 94.4834 93.744C93.982 94.0107 93.4007 94.144 92.7394 94.144C91.9927 94.144 91.31 93.952 90.6914 93.568C90.0834 93.184 89.598 92.6453 89.2354 91.952C88.8834 91.248 88.7074 90.4427 88.7074 89.536ZM95.6834 89.568C95.6834 89.024 95.5767 88.56 95.3634 88.176C95.15 87.7813 94.862 87.4827 94.4994 87.28C94.1367 87.0667 93.7474 86.96 93.3314 86.96C92.9154 86.96 92.5314 87.0613 92.1794 87.264C91.8274 87.4667 91.5394 87.7653 91.3154 88.16C91.102 88.544 90.9954 89.0027 90.9954 89.536C90.9954 90.0693 91.102 90.5387 91.3154 90.944C91.5394 91.3387 91.8274 91.6427 92.1794 91.856C92.542 92.0693 92.926 92.176 93.3314 92.176C93.7474 92.176 94.1367 92.0747 94.4994 91.872C94.862 91.6587 95.15 91.36 95.3634 90.976C95.5767 90.5813 95.6834 90.112 95.6834 89.568ZM99.0711 89.568C99.0711 88.6507 99.2578 87.8507 99.6311 87.168C100.004 86.4747 100.522 85.9413 101.183 85.568C101.844 85.184 102.602 84.992 103.455 84.992C104.554 84.992 105.46 85.2693 106.175 85.824C106.9 86.368 107.386 87.136 107.631 88.128H105.215C105.087 87.744 104.868 87.4453 104.559 87.232C104.26 87.008 103.887 86.896 103.439 86.896C102.799 86.896 102.292 87.1307 101.919 87.6C101.546 88.0587 101.359 88.7147 101.359 89.568C101.359 90.4107 101.546 91.0667 101.919 91.536C102.292 91.9947 102.799 92.224 103.439 92.224C104.346 92.224 104.938 91.8187 105.215 91.008H107.631C107.386 91.968 106.9 92.7307 106.175 93.296C105.45 93.8613 104.543 94.144 103.455 94.144C102.602 94.144 101.844 93.9573 101.183 93.584C100.522 93.2 100.004 92.6667 99.6311 91.984C99.2578 91.2907 99.0711 90.4853 99.0711 89.568ZM112.728 94.144C111.875 94.144 111.107 93.9573 110.424 93.584C109.741 93.2 109.203 92.6613 108.808 91.968C108.424 91.2747 108.232 90.4747 108.232 89.568C108.232 88.6613 108.429 87.8613 108.824 87.168C109.229 86.4747 109.779 85.9413 110.472 85.568C111.165 85.184 111.939 84.992 112.792 84.992C113.645 84.992 114.419 85.184 115.112 85.568C115.805 85.9413 116.349 86.4747 116.744 87.168C117.149 87.8613 117.352 88.6613 117.352 89.568C117.352 90.4747 117.144 91.2747 116.728 91.968C116.323 92.6613 115.768 93.2 115.064 93.584C114.371 93.9573 113.592 94.144 112.728 94.144ZM112.728 92.192C113.133 92.192 113.512 92.096 113.864 91.904C114.227 91.7013 114.515 91.4027 114.728 91.008C114.941 90.6133 115.048 90.1333 115.048 89.568C115.048 88.7253 114.824 88.08 114.376 87.632C113.939 87.1733 113.4 86.944 112.76 86.944C112.12 86.944 111.581 87.1733 111.144 87.632C110.717 88.08 110.504 88.7253 110.504 89.568C110.504 90.4107 110.712 91.0613 111.128 91.52C111.555 91.968 112.088 92.192 112.728 92.192Z" fill="white"/>
<rect x="39" y="28.75" width="10.875" height="19" rx="4" transform="rotate(-90 39 28.75)" fill="#754EE4"/>
<rect x="47.5" y="16.625" width="13" height="19" rx="4" fill="#EE3CAF"/>
</svg>
