<svg width="76" height="46" viewBox="0 0 76 46" fill="none" xmlns="http://www.w3.org/2000/svg">
<path d="M67.9 14.0141C66.35 12.0858 63.975 11.1091 60.8312 11.1091C57.4874 11.1091 54.8749 12.1867 53.1374 14.2472C51.6687 12.1615 49.3374 11.1091 46.1687 11.1091C43.8062 11.1091 41.8374 11.7267 40.3062 12.905C40.2562 12.0984 39.6187 11.462 38.8374 11.462H33.7499C33.4312 11.462 33.1374 11.5691 32.8937 11.7519L32.2749 11.6447V45.9872H40.9499V23.4409C40.9499 21.9097 41.3187 18.3368 44.7124 18.3368C45.4874 18.3368 47.0937 18.3368 47.0937 21.8908V45.9872H55.2312V23.4409C55.2312 22.2437 55.4999 18.3368 58.9937 18.3368C59.8812 18.3368 61.3749 18.3368 61.3749 21.8908V45.9872H70.0562V21.9538C70.0562 18.3935 69.3562 15.7974 67.9125 14.0015L67.9 14.0141Z" fill="#EE3CAF"/>
<path d="M36.85 29.6542H31.0125C30.1625 29.6542 29.475 30.234 29.475 30.946V33.2712C29.475 38.1107 26.7187 38.7597 24.025 38.7597C21.5187 38.7597 18.65 38.1359 18.65 33.2712V18.1542H29.4688C30.3188 18.1542 31.0063 17.5745 31.0063 16.8625V12.4074C31.0063 11.6953 30.3188 11.1156 29.4688 11.1156H18.65V1.29178C18.65 0.579726 17.9625 0 17.1125 0H11.4875C10.6437 0 9.95625 0.573425 9.95 1.28548L9.9 11.1093H1.5375C0.6875 11.1093 0 11.689 0 12.4011V16.8562C0 17.5682 0.6875 18.1479 1.5375 18.1479H9.6V33.914C9.6 37.7074 10.875 40.7006 13.3812 42.8115C15.8875 44.9225 19.45 45.9937 23.9563 45.9937C28.5 45.9937 32.0813 44.9225 34.6 42.8115C37.1188 40.7069 38.3938 37.7074 38.3938 33.9077V30.9397C38.3938 30.2277 37.7063 29.6479 36.8563 29.6479L36.85 29.6542Z" fill="#754EE4"/>
<g opacity="0.5">
<path d="M36.85 29.8181H32.2688V44.4814C33.1188 44.0592 33.9063 43.5677 34.5938 42.9817C37.1125 40.877 38.3875 37.8776 38.3875 34.0778V31.1099C38.3875 30.3978 37.7 29.8181 36.85 29.8181Z" fill="#FFB3E4"/>
</g>
<path d="M70.15 45.6597C73.0357 45.6597 75.375 43.3011 75.375 40.3917C75.375 37.4823 73.0357 35.1238 70.15 35.1238C67.2644 35.1238 64.925 37.4823 64.925 40.3917C64.925 43.3011 67.2644 45.6597 70.15 45.6597Z" fill="#754EE4"/>
<path opacity="0.5" d="M69.8625 35.1239C69.9 35.1239 69.9375 35.1239 69.975 35.1239V45.6409C69.9375 45.6409 69.9 45.6409 69.8625 45.6409C66.9812 45.6409 64.6375 43.2842 64.6375 40.3729C64.6375 37.4617 66.975 35.105 69.8625 35.105V35.1239Z" fill="#FFB3E4"/>
</svg>
