<?xml version="1.0" encoding="UTF-8"?>
<svg id="Layer_2" xmlns="http://www.w3.org/2000/svg" viewBox="0 0 282.94 171.26">
  <defs>
    <style>
      .cls-1 {
        fill: #50a1ff;
      }

      .cls-2 {
        fill: #138bbf;
      }

      .cls-3 {
        fill: #5dead5;
      }
    </style>
  </defs>
  <g id="Layer_1-2" data-name="Layer_1">
    <g>
      <path class="cls-1" d="M254.87,52.18c-5.82-7.17-14.74-10.8-26.53-10.8-12.56,0-22.36,4-28.88,11.68-5.51-7.76-14.27-11.68-26.17-11.68-8.87,0-16.27,2.3-22.02,6.69-.2-3-2.57-5.37-5.5-5.37h-19.11c-1.2,0-2.31.41-3.21,1.08l-2.33-.39v127.87h32.57v-83.95c0-5.71,1.38-19,14.12-19,2.9,0,8.93,0,8.93,13.23v89.72h30.55v-83.95c0-4.46,1.02-19,14.12-19,3.34,0,8.93,0,8.93,13.23v89.72h32.58v-89.48c0-13.24-2.63-22.93-8.05-29.61Z"/>
      <path class="cls-3" d="M138.34,110.4h-21.9c-3.19,0-5.76,2.15-5.76,4.81v8.66c0,18.02-10.34,20.44-20.46,20.44-9.4,0-20.18-2.33-20.18-20.44v-56.28h40.62c3.19,0,5.77-2.15,5.77-4.81v-16.6c0-2.66-2.58-4.81-5.77-4.81h-40.62V4.81c0-2.66-2.58-4.81-5.76-4.81h-21.13c-3.18,0-5.75,2.14-5.76,4.79l-.18,36.58H5.76c-3.19,0-5.76,2.15-5.76,4.81v16.6c0,2.66,2.58,4.81,5.76,4.81h30.26v58.69c0,14.13,4.77,25.28,14.19,33.14,9.41,7.86,22.77,11.85,39.7,11.85h0c17.06,0,30.5-3.99,39.95-11.85,9.44-7.85,14.23-19,14.23-33.15v-11.06c0-2.66-2.58-4.81-5.76-4.81Z"/>
      <circle class="cls-3" cx="263.34" cy="150.38" r="19.6"/>
      <path class="cls-2" d="M138.47,110.29h-17.21v54.6c3.2-1.57,6.14-3.41,8.74-5.58,9.44-7.85,14.23-19,14.23-33.15v-11.06c0-2.66-2.58-4.81-5.76-4.81Z"/>
      <path class="cls-2" d="M262.38,130.06c.14,0,.27.02.41.02v39.17c-.14,0-.27.02-.41.02-10.83,0-19.6-8.78-19.6-19.6,0-10.83,8.78-19.6,19.6-19.6Z"/>
    </g>
  </g>
</svg>